<svg width="77" height="79" viewBox="0 0 77 79" fill="none" xmlns="http://www.w3.org/2000/svg">
<path d="M59.0761 45.8411V77.5H1.5V35.9098H41.5449H42.8367M59.0761 45.8411L75.5 37.3086V8.86687C75.5 8.86687 73.1304 7.19294 71.8538 5.6047C70.6216 4.07176 69.4102 1.5 69.4102 1.5H48.788C48.788 1.5 48.1618 4.06592 46.9629 5.6047C45.7103 7.21236 42.8367 8.86687 42.8367 8.86687V35.9098M59.0761 45.8411L42.8367 35.9098M54.4626 22.5748L57.7843 25.5589L64.9813 19.4975M9.89651 43.9294H21.1534V55.1196H9.89651V43.9294ZM8.78928 64.0718H14.6945V68.5479H8.78928V64.0718ZM45.8815 64.0718H51.7868V68.5479H45.8815V64.0718ZM33.5175 64.0718H39.4227V68.5479H33.5175V64.0718ZM21.1534 64.0718H27.0586V68.5479H21.1534V64.0718Z" stroke="#C5358C" stroke-width="3" stroke-linecap="round" stroke-linejoin="round"/>
</svg>
