<svg width="79" height="54" viewBox="0 0 79 54" fill="none" xmlns="http://www.w3.org/2000/svg">
<path opacity="0.9" d="M32.2907 1.5H1.5V52.5H32.2907M32.2907 1.5H77.5V52.5H32.2907M32.2907 1.5V52.5M9.12791 26.8591H23.8256M9.12791 38.2238H23.8256M9.12791 15.1188H23.8256M62.5251 11.9254L47.9186 40.5718M69.6861 35.0304C69.6861 38.5577 66.8956 41.4171 63.4535 41.4171C60.0113 41.4171 57.2209 38.5577 57.2209 35.0304C57.2209 31.5031 60.0113 28.6436 63.4535 28.6436C66.8956 28.6436 69.6861 31.5031 69.6861 35.0304ZM52.9419 17.7486C52.9419 21.2759 50.1515 24.1354 46.7093 24.1354C43.2672 24.1354 40.4767 21.2759 40.4767 17.7486C40.4767 14.2213 43.2672 11.3619 46.7093 11.3619C50.1515 11.3619 52.9419 14.2213 52.9419 17.7486Z" stroke="#C5358C" stroke-width="3" stroke-linecap="round" stroke-linejoin="round"/>
</svg>
